<svg xmlns="http://www.w3.org/2000/svg" version="1.1" xmlns:xlink="http://www.w3.org/1999/xlink" width="200" height="200"><svg xmlns="http://www.w3.org/2000/svg" version="1.1" xmlns:xlink="http://www.w3.org/1999/xlink" viewBox="0 0 200 200"><rect width="200" height="200" fill="url('#gradient')"></rect><defs><linearGradient id="SvgjsLinearGradient1001" gradientTransform="rotate(160 0.5 0.5)"><stop offset="0%" stop-color="#dee90b"></stop><stop offset="100%" stop-color="#fd97e3"></stop></linearGradient></defs><g><g fill="#1b3855" transform="matrix(7.625531914893617,0,0,7.625531914893617,18.099597301381692,140.26601302573022)" stroke="#0e5278" stroke-width="0.2"><path d="M9.51-8.79L4.80-2.54L9.62-2.54L9.62 0L0.64 0L0.64-1.84L5.33-8.03L0.85-8.03L0.85-10.57L9.51-10.57L9.51-8.79ZM10.65-4.82L10.64-5.38Q10.64-6.96 11.26-8.20Q11.88-9.43 13.03-10.10Q14.18-10.76 15.73-10.76L15.73-10.76Q18.11-10.76 19.47-9.29Q20.84-7.82 20.84-5.29L20.84-5.29L20.84-5.18Q20.84-2.71 19.47-1.25Q18.10 0.20 15.75 0.20L15.75 0.20Q13.50 0.20 12.13-1.16Q10.76-2.51 10.65-4.82L10.65-4.82ZM13.95-5.77L13.94-5.18Q13.94-3.71 14.39-3.03Q14.85-2.34 15.75-2.34L15.75-2.34Q17.51-2.34 17.55-5.05L17.55-5.05L17.55-5.38Q17.55-8.22 15.73-8.22L15.73-8.22Q14.08-8.22 13.95-5.77L13.95-5.77Z"></path></g></g></svg><style>@media (prefers-color-scheme: light) { :root { filter: none; } }
@media (prefers-color-scheme: dark) { :root { filter: none; } }
</style></svg>